<svg id="Layer_1" data-name="Layer 1" xmlns="http://www.w3.org/2000/svg" viewBox="0 0 919 198"><defs><style>.cls-1{fill:#fefefe;}.cls-2{fill:#1b2041;}.cls-3{fill:#1c2141;}.cls-4{fill:#1c2142;}.cls-5{fill:#1d2847;}.cls-6{fill:#225467;}.cls-7{fill:#1d6072;}.cls-8{fill:#207e8b;}.cls-9{fill:#158f99;}.cls-10{fill:#21586b;}.cls-11{fill:#205b6e;}.cls-12{fill:#1c2544;}.cls-13{fill:#22485e;}.cls-14{fill:#225367;}.cls-15{fill:#1b8994;}.cls-16{fill:#21435a;}.cls-17{fill:#0e9aa2;}.cls-18{fill:#203e56;}.cls-19{fill:#1d2343;}.cls-20{fill:#254b60;}.cls-21{fill:#224e63;}.cls-22{fill:#1f3d56;}.cls-23{fill:#21344f;}.cls-24{fill:#21425a;}.cls-25{fill:#21475d;}.cls-26{fill:#235165;}.cls-27{fill:#202d4b;}.cls-28{fill:#21324d;}.cls-29{fill:#1e8390;}.cls-30{fill:#21354f;}.cls-31{fill:#202e4b;}.cls-32{fill:#21314d;}.cls-33{fill:#213852;}.cls-34{fill:#1f5b6e;}.cls-35{fill:#176c7c;}.cls-36{fill:#233953;}.cls-37{fill:#255467;}.cls-38{fill:#254b61;}.cls-39{fill:#edecee;}.cls-40{fill:#21576a;}.cls-41{fill:#353652;}.cls-42{fill:#232746;}.cls-43{fill:#1b6476;}.cls-44{fill:#212545;}.cls-45{fill:#252848;}.cls-46{fill:#dbdade;}.cls-47{fill:#d2d1d6;}.cls-48{fill:#706c79;}.cls-49{fill:#736f76;}.cls-50{fill:#1d2142;}.cls-51{fill:#757179;}.cls-52{fill:#262947;}.cls-53{fill:#272948;}.cls-54{fill:#242847;}.cls-55{fill:#6d6970;}.cls-56{fill:#2c2c4b;}.cls-57{fill:#222545;}.cls-58{fill:#4b4a61;}.cls-59{fill:#4d4b64;}.cls-60{fill:#262747;}.cls-61{fill:#1e2242;}.cls-62{fill:#6e6972;}.cls-63{fill:#474761;}.cls-64{fill:#1c2041;}.cls-65{fill:#222444;}.cls-66{fill:#4a4961;}.cls-67{fill:#646175;}.cls-68{fill:#4b4963;}.cls-69{fill:#1d2242;}.cls-70{fill:#373854;}.cls-71{fill:#797580;}.cls-72{fill:#4e4c65;}.cls-73{fill:#6f6b71;}.cls-74{fill:#474661;}.cls-75{fill:#484662;}.cls-76{fill:#545168;}.cls-77{fill:#343451;}.cls-78{fill:#464560;}.cls-79{fill:#45455f;}.cls-80{fill:#3b3a56;}.cls-81{fill:#615d6c;}.cls-82{fill:#736e81;}.cls-83{fill:#666173;}.cls-84{fill:#3c3b58;}.cls-85{fill:#1e2243;}.cls-86{fill:#56546a;}.cls-87{fill:#42415c;}.cls-88{fill:#645f6f;}.cls-89{fill:#47455b;}.cls-90{fill:#46455f;}.cls-91{fill:#3d3d59;}.cls-92{fill:#141620;}.cls-93{fill:#fdfdfd;}.cls-94{fill:#186879;}.cls-95{fill:#1b6375;}.cls-96{fill:#11959d;}.cls-97{fill:#176879;}.cls-98{fill:#1a8894;}.cls-99{fill:#156d7e;}.cls-100{fill:#187584;}.cls-101{fill:#157281;}.cls-102{fill:#1c7a87;}.cls-103{fill:#156d7d;}.cls-104{fill:#197684;}.cls-105{fill:#167281;}.cls-106{fill:#1c7a88;}.cls-107{fill:#f3f3f4;}.cls-108{fill:#fafafa;}</style></defs><path class="cls-1" d="M960.5,638.91q-227.44,0-454.9.09c-3.75,0-4.61-.84-4.6-4.59q.21-94.67,0-189.32c0-3.42.67-4.09,4.1-4.09q455.4.15,910.8,0c3.43,0,4.11.67,4.1,4.09q-.2,94.91,0,189.82c0,3.42-.67,4.09-4.1,4.09Q1188.2,638.84,960.5,638.91Z" transform="translate(-501 -441)"/><path class="cls-2" d="M981.89,516.94c0,11.92-.09,22.89.06,33.85,0,3-.46,4.36-4,4.29-8-.16-8,.06-8-8.13,0-14,0-27.94.06-41.91,0-2-1.28-5.29,1-5.69,3.18-.54,6.93-1.61,10,.95q16.81,14,33.63,27.94c3.15,2.61,6.39,5.12,10.14,8.13,0-11.15.2-21.7-.1-32.23-.12-4.05.75-5.46,5.06-5.21,7,.4,7,.09,7,7.23,0,14.14.08,28.28-.08,42.41,0,2.07,1.61,5.5-1.19,6.09-3.16.68-7,1.57-10-1q-16.25-13.55-32.38-27.22C989.6,523.51,986.11,520.52,981.89,516.94Z" transform="translate(-501 -441)"/><path class="cls-2" d="M933.71,536.67c0-11.2.16-22.13-.09-33-.09-3.66.73-5.28,4.59-4.63a17.75,17.75,0,0,0,4.49,0c2.34-.22,3.18.59,3.17,3.05q-.15,25,0,49.94c0,2.52-.93,3-3.2,3.06a14.65,14.65,0,0,1-11.21-3.86c-13.06-11.43-26.54-22.39-40.55-34.1v20.65c0,4.49-.22,9,.07,13.48.21,3.19-.94,3.85-3.92,3.83-8,0-8,.09-8-8.07,0-13.82-.07-27.64.07-41.45,0-2.12-1.48-5.62,1-6.18,3.13-.7,6.93-1.5,10,1.06,9.21,7.63,18.43,15.22,27.63,22.86C923,527.62,928.17,532,933.71,536.67Z" transform="translate(-501 -441)"/><path class="cls-2" d="M1335.48,555c-8.5,0-17-.1-25.49,0-2.75.06-3.74-.63-3.72-3.56q.21-24.47,0-48.94c0-2.94,1-3.58,3.72-3.56,17,.11,34,.22,51-.05,4.48-.07,3.6,2.49,3.73,5,.15,2.92.14,5-4,4.92-12.16-.28-24.33,0-36.48-.18-3.45-.07-4.53.77-4.43,4.34.21,8,0,8,8.16,8,4.5,0,9,.34,13.48-.1,4.3-.43,4.62,1.51,4.76,5,.16,4-1.15,5.1-5,4.89-6-.32-12,0-18-.14-2.64-.08-3.3.76-3.36,3.36-.23,10.13-.33,10.13,9.52,10.13,10.49,0,21,.07,31.48-.05,2.75,0,4.2.25,4.16,3.67-.1,7.16.13,7.17-7,7.17Z" transform="translate(-501 -441)"/><path class="cls-2" d="M1177.43,555c-6.83,0-13.67.12-20.49,0-6.45-.15-9.82-2.9-10-9.32q-.56-18.71,0-37.43c.18-6,3.64-9,9.75-9q21-.24,42,0c6.85.07,9.93,3.41,10.29,10.73.13,2.58,1.39,6.44-.76,7.49-3.42,1.68-7.69,2.06-11.62,2.13-2.17,0-1.47-2.75-1.25-4.16.78-5.21-1.2-6.69-6.38-6.41-8.48.47-17,.25-25.49.06-2.86-.06-3.62.82-3.57,3.61.17,9.32.23,18.65,0,28-.09,3.3,1.14,3.77,4,3.72,9-.17,18-.22,27,0,3.41.09,4.58-.7,4.48-4.32-.21-8,0-7.74,8-6.55,4.82.72,6.08,2.79,5.9,7.51-.44,11.32-2.91,14.05-14.29,14.06h-17.49Z" transform="translate(-501 -441)"/><path class="cls-2" d="M756.09,526.58c0-8,.11-16-.06-24-.06-2.75.64-3.68,3.54-3.66,15.82.14,31.63,0,47.45.11,7.37.05,10.63,3.41,10.76,10.73.07,4.32.14,8.65,0,13-.25,6.64-3.7,10.1-10.36,10.17-11.31.13-22.64.19-33.95,0-3.34-.06-4.32.92-4.14,4.17.26,4.65-.09,9.32.12,14,.13,2.85-.41,4-3.71,4-9.62,0-9.62.15-9.62-9.53Z" transform="translate(-501 -441)"/><path class="cls-2" d="M1131,555c-4.09,0-8.22-.1-12.34,0s-4.39-3.63-5.13-5.75c-1.81-5.14-4.75-6.68-10-6.38-8.3.45-16.66.33-25,0-3.39-.13-5.25,1-6.48,3.93-.63,1.53-1.77,2.88-2.21,4.44-.87,3.12-2.68,4.12-5.83,3.79a89.31,89.31,0,0,0-9-.06c2.83-7.4,7.15-13.58,10.84-20.09,6.28-11.09,12.48-22.23,18.9-33.24,2.45-4.21,14.34-3.83,16.75.34q14.26,24.74,28.47,49.49C1130.47,552.46,1131.28,553.4,1131,555Z" transform="translate(-501 -441)"/><path class="cls-3" d="M1260.2,555c-8.15,0-16.3-.09-24.45,0-2.54,0-3.47-.61-3.45-3.31q.17-24.69,0-49.37c0-2.61.77-3.32,3.38-3.39,10.22-.28,10.22-.39,10.22,9.89,0,9.81.38,19.64-.16,29.42-.29,5.35,1.58,6.18,6.32,6,10.8-.35,21.63.14,32.43-.23,5.09-.17,4.09,2.89,4.15,5.74s.72,5.52-4,5.28C1276.52,554.69,1268.35,555,1260.2,555Z" transform="translate(-501 -441)"/><path class="cls-4" d="M853.62,527.53c0,8-.12,16,.06,23.91.06,2.86-.86,3.59-3.66,3.62-9.95.12-9.95.23-9.95-9.64,0-14.11.1-28.23-.08-42.34,0-3.24.82-4.16,4.1-4.13,9.53.1,9.53-.06,9.53,9.65Z" transform="translate(-501 -441)"/><path class="cls-5" d="M553.06,523a48.09,48.09,0,0,1,0-11c9.72-10.38,20.38-19.84,29.85-30.47a3.06,3.06,0,0,1,2.21-1c3.09,0,6.18,0,9.27,0,2.39,1.56.9,3.15-.19,4.39-3.44,3.94-6.49,8.32-11.12,11.08-7.67,1.08-13.09,4.56-13.94,13-3.27,5.32-8.15,9.16-12.54,13.44C555.67,523.38,554.44,524.15,553.06,523Z" transform="translate(-501 -441)"/><path class="cls-6" d="M633.05,526.18h10c1.24,1.69,0,2.89-1,3.88-9.91,9.81-19.32,20.14-29.82,29.35-1.9,2.5-3.89,4.91-6.8,6.26-.92.43-2.08,1.44-2.82-.33-.06-2.8,0-5.59,0-8.39,2.17-4.37,6.1-7.34,9.44-10.56,6.42-6.19,12.5-12.71,19-18.83A7.81,7.81,0,0,1,633.05,526.18Z" transform="translate(-501 -441)"/><path class="cls-7" d="M660,526.18c4.47-1,6.26.41,5.94,5.3-.48,7.44-.28,14.92-.37,22.38-2.62-1.34-1.56-3.88-2-5.94,0-2.63,0-5.27.07-7.89a52.33,52.33,0,0,0,0-5.51c-7.39,7.38-14.39,14.4-21.41,21.38-1.52,1.51-2.88,3.3-5.25,3.56H628c-2.53-1.09-.49-2.15.18-2.85,7.37-7.66,14.69-15.38,22.56-22.52C653.72,531.36,655.5,527.12,660,526.18Z" transform="translate(-501 -441)"/><path class="cls-8" d="M603.11,556v10c1.91,2,1.26,4.6,1.38,7,.2,3,0,6,0,9,.2,3.54,0,7.08,0,10.61.18,2.19-.16,4.38,0,6.56,2.06,4.35,6,1.7,9.05,2.42,2.79,0,5.58-.11,8.38-.07,2.27.16,4.55-.08,6.82,0,2.42.17,4.84,0,7.25.09,4.33.8,7.65-.63,10.39-4.14,1.91-2.45,4.38-4.46,6.66-6.75-1.39-.92-2.7-.18-3.94-.38-2.43.06-4.85.13-7.28.1s-4.62.14-6.93,0c-3-.09-6,.15-8.94,0-4.24-.26-8.54.6-12.74-.58-.79-.49-1.69-.93-1-2.13,4.62.88,9.28.36,13.92.38,21,.09,41.91.08,62.86.11-.93,2.61-3.25,1.87-5.15,2.15-3.35-.07-6.7.11-10,0C663.4,588,659.47,596.5,654,602.3c-.71.28.28,1.09-.09.53-.15-.21-.08-.31.13-.43,2.13-1.31,4.5-.59,6.77-.84,3.12-.06,6.23-.14,9.35-.08,3.28.15,6.55-.18,9.82,0s6.7-.27,10,.22a3.65,3.65,0,0,1,2.37,1.38c-1.69,1-3.56.68-5.37.68-26.62,0-53.24,0-79.87.14-3.68,0-5.18-.6-5.12-4.81.29-20.27.21-40.55.26-60.83,3.14,1.07,1.6,3.85,2.18,5.87.06,2.29-.06,4.59,0,6.89A8.09,8.09,0,0,1,603.11,556Z" transform="translate(-501 -441)"/><path class="cls-9" d="M680.13,602.8l-10,0c3.46-5.75,7.4-11,13.88-13.73,1.67-.36,3.54.46,5-.88,5.22-1,7.9-4.6,9.43-9.34.29-2-.16-4,.32-6,3.33-5.2,8.57-8.57,12.64-13.06,1.75-1.92,3.21-1.15,3.12,1.65-.08,2.31,0,4.61,0,6.91a6.34,6.34,0,0,1-2,3.34c-9.47,9.66-18.83,19.43-28.69,28.69A16.93,16.93,0,0,1,680.13,602.8Z" transform="translate(-501 -441)"/><path class="cls-8" d="M699.17,573c-.37,2,.46,4-.7,5.92q-.09-40.89-.19-81.78a1,1,0,0,1,1.42.51c.94,1.91.62,4,.76,6,.2,4.11,0,8.23.07,12.35.14,3-.09,5.91,0,8.87.15,2.31-.11,4.62,0,6.93s0,4.91-.08,7.36c0,1.82-.15,3.64-.18,5.23,2.89-3,5.95-6.18,9-9.25a10.78,10.78,0,0,0,3.44-9.8c-.09-2.18.05-4.35-.09-6.52-.1-2.6.13-5.21,0-7.82-.13-3,.13-5.93,0-8.9-.07-3.82,0-7.65.08-11.46-.12-2.13.08-4.28-.15-6.4-2.12-3.15-5.35-1.23-8-1.74-2.53-.05-5.06.19-7.58.07-3.28-.07-6.55.19-9.83,0-3.9.11-7.8.09-11.7.08-2.89-.21-5.79.06-8.69-.05-1.93-.17-3.87,0-5.8-.19a5.61,5.61,0,0,1-2.33-.68.86.86,0,0,1-.33-1.33c17.93-.06,35.86-.08,53.79-.21,2.45,0,3.1.9,3.08,3.21-.15,17.92-.2,35.84-.27,53.75-.17,5-3.24,8.26-6.95,10.86-5.65,4-8.77,8.87-7.38,16C700.47,567,700.85,570.12,699.17,573Z" transform="translate(-501 -441)"/><path class="cls-10" d="M612.07,559q13.8-14,27.58-28.09c1.35-1.38,3.27-2.42,3.41-4.71h8c.41,2.47-1.24,4.08-2.68,5.56-9.11,9.32-18.3,18.58-27.65,27.67-2.46.15-4.93,0-7.39.12l-1.12.72A.74.74,0,0,1,612.07,559Z" transform="translate(-501 -441)"/><path class="cls-11" d="M621.07,558.81c.15-2.26,2.08-3.27,3.39-4.69,8.72-9.44,18.94-17.46,26.58-27.94h9q-13.71,13.88-27.43,27.72c-1.74,1.75-3.69,3.28-5.54,4.91A6.16,6.16,0,0,1,621.07,558.81Z" transform="translate(-501 -441)"/><path class="cls-12" d="M584.07,481.13c-1.15,3.07-3.65,5.06-5.86,7.28q-10.35,10.38-20.74,20.71c-1.26,1.25-2.29,2.92-4.41,2.91a17.74,17.74,0,0,1,.07-7c2.2-4.39,6.08-7.31,9.48-10.61,4.8-4.65,8.93-10,14.5-13.85C579.43,480.85,581.83,480,584.07,481.13Z" transform="translate(-501 -441)"/><path class="cls-13" d="M569.16,567a53.32,53.32,0,0,1,0,12c-3.58,5.6-8.8,9.68-13.44,14.29a2.19,2.19,0,0,1-2.65.7,80.7,80.7,0,0,1,0-14c3.86-4,6.94-8.83,11.75-11.93C566.16,567.18,567.3,565.6,569.16,567Z" transform="translate(-501 -441)"/><path class="cls-14" d="M675.05,481.09h12c1.44,2.42-.63,3.64-1.88,4.93-3.28,3.42-6.55,6.87-10.12,10a70.46,70.46,0,0,1-13,0c-.77-1.64.13-3,1.11-4C666.89,488.14,670.21,483.78,675.05,481.09Z" transform="translate(-501 -441)"/><path class="cls-15" d="M699.17,573c0-3.33,0-6.67,0-10,3.08-5.44,8.05-9.14,12.45-13.36.92-.88,2.32-1.63,3.15.36,0,11.15.9,22.31-.54,33.43-1.49-1.08-1.43-2.74-1.62-4.31-.07-3.44-.54-6.93,1.41-10.08V558.45A112,112,0,0,1,699.17,573Z" transform="translate(-501 -441)"/><path class="cls-16" d="M569.16,567A25.41,25.41,0,0,0,559,575.11c-1.54,2.09-3,4.45-5.9,4.85a50.38,50.38,0,0,1,0-11c3.2-4.92,7.46-8.86,11.84-12.67,1.13-1,2.28-2.69,4.25-1.32A53.41,53.41,0,0,1,569.16,567Z" transform="translate(-501 -441)"/><path class="cls-17" d="M714,579l.21,4.4c-3.13,11.13-10.37,17.71-21.78,19.67l-2.31-.25c-.51-1.56.54-2.53,1.44-3.45q9.39-9.6,19-19C711.47,579.49,712.43,578.41,714,579Z" transform="translate(-501 -441)"/><path class="cls-18" d="M569.16,555c-5.2,2.43-8.46,7.07-12.35,11a11.63,11.63,0,0,1-3.74,3,50.48,50.48,0,0,1,0-11c3.76-5.67,8.87-10.06,13.89-14.52a1.74,1.74,0,0,1,2.19-.48A52.92,52.92,0,0,1,569.16,555Z" transform="translate(-501 -441)"/><path class="cls-19" d="M576.08,481.22c-.45,2.94-3,4.27-4.83,6.09-6,6-12.07,11.82-18.12,17.72-.89-11.34,10.82-22.87,20.72-24.16C574.66,480.57,575.44,480.42,576.08,481.22Z" transform="translate(-501 -441)"/><path class="cls-20" d="M603.09,544c-.39-1.91.6-4-.76-5.78a56.83,56.83,0,0,1-.08-6.39c.33-3.52,2.15-5.81,6-5.81,4.27,0,8.54.1,12.82.16.42,1.32-.38,2.25-1.17,3.07q-6.71,7-13.72,13.7C605.34,543.73,604.42,544.58,603.09,544Z" transform="translate(-501 -441)"/><path class="cls-21" d="M553.08,594q8-7.5,16.09-15a54.1,54.1,0,0,1,0,12c-3.3,3.66-7,6.9-10.29,10.6-1.6,1.82-3.38,2.49-5.64,1.38A26.11,26.11,0,0,1,553.08,594Z" transform="translate(-501 -441)"/><path class="cls-21" d="M603.09,544a220.43,220.43,0,0,0,18-17.82h8c-.28,3.17-3,4.6-4.9,6.53-5.53,5.68-11,11.44-16.87,16.78-1.11,1-2.12,2.82-4.16,1.5C603.1,548.66,603.09,546.33,603.09,544Z" transform="translate(-501 -441)"/><path class="cls-22" d="M627.07,496.05h-11c.89-4.92,5.64-6.81,8.27-10.38,1.82-2.46,4.14-4.72,7.53-5.1,2.81,0,5.61,0,8.41,0,2.15,1,.83,2.33.09,3.07C636.09,488,632.87,493.39,627.07,496.05Z" transform="translate(-501 -441)"/><path class="cls-7" d="M705,481.12c3,.79,6.72-2,9,1.95-3.3,5.4-8.24,9.25-12.71,13.55a2,2,0,0,1-2.26.45h-.39l-.4,0c-2.2-1.72-4.88-.23-7.22-1.06-.48-.53-.77-1.3-.27-1.75C695.59,490,698.87,484,705,481.12Z" transform="translate(-501 -441)"/><path class="cls-23" d="M609.07,496.06a33.49,33.49,0,0,1-9,0,3.14,3.14,0,0,1,.82-3.65c3.78-4.14,7.36-8.49,11.94-11.82,3.1,0,6.19,0,9.28,0,2.77,1.07.76,2.59,0,3.35C618,488.21,614.33,493,609.07,496.06Z" transform="translate(-501 -441)"/><path class="cls-24" d="M627.07,496.05l14-14.92c2.61-1.16,5.37-.28,8-.56,3.47,1.95.74,3.67-.44,5a128,128,0,0,1-10.58,10.51Z" transform="translate(-501 -441)"/><path class="cls-25" d="M638.07,496.05c.71-3.73,4.29-5.15,6.31-7.82,1.83-2.41,5.08-3.7,5.67-7.1a13.92,13.92,0,0,1,8.06-.13l1.94.07c.52,2.9-1.62,4.52-3.21,6.27a120.13,120.13,0,0,1-8.77,8.71Z" transform="translate(-501 -441)"/><path class="cls-26" d="M603.1,551c3.2-1.49,5.46-4.16,7.89-6.54,6.13-6,12-12.16,18-18.27h4c-5.17,7.54-12.14,13.42-18.76,19.54-3.7,3.43-5.94,8.52-11.18,10.26C603.11,554.31,603.1,552.65,603.1,551Z" transform="translate(-501 -441)"/><path class="cls-27" d="M553.06,523c4.29-1.13,6.12-5.2,9.22-7.74,2.39-2,4.58-4.16,6.86-6.26a30.78,30.78,0,0,1,0,9c-3.56,5.64-8.8,9.69-13.44,14.32a2.15,2.15,0,0,1-2.65.68A40.24,40.24,0,0,1,553.06,523Z" transform="translate(-501 -441)"/><path class="cls-28" d="M553.06,533l16.09-15a37.62,37.62,0,0,1,0,10c-3.57,3.86-7.33,7.52-11.12,11.16-1.3,1.25-2.55,3.3-5,1.83A26.11,26.11,0,0,1,553.06,533Z" transform="translate(-501 -441)"/><path class="cls-29" d="M714.76,550c-2.17-1.32-2.86.83-3.92,1.8-4,3.67-7.79,7.46-11.68,11.2-1.67-7.22,2.05-12,7.5-15.7a22.64,22.64,0,0,0,8.13-10.18Z" transform="translate(-501 -441)"/><path class="cls-10" d="M675.06,496c.73-3.73,4.3-5.15,6.33-7.82,1.84-2.42,5.08-3.71,5.67-7.12h10a1.6,1.6,0,0,1-.21,1.86c-4.35,4.26-7.28,9.91-12.77,13.06Z" transform="translate(-501 -441)"/><path class="cls-30" d="M553.07,541c4.64-1.51,6.75-6,10.29-8.77,1.88-1.48,2.95-4.06,5.79-4.22a24.35,24.35,0,0,1,0,8c-4.35,5.82-8.87,11.45-16.08,14A32.61,32.61,0,0,1,553.07,541Z" transform="translate(-501 -441)"/><path class="cls-21" d="M675.05,481.09c-3.74,5.49-10.09,8.72-13,15l-10,0a2.15,2.15,0,0,1,.68-2.65c4.3-4.27,8-9.21,13.32-12.34Z" transform="translate(-501 -441)"/><path class="cls-31" d="M583.08,496.06l9.06-10.57c1.15-1.34,2.91-2.26,2.92-4.36,2.89-1.15,5.9-.29,8.83-.56,3,.64,1.14,2.37.41,3.14-4.12,4.41-7.93,9.19-13.22,12.36A25.86,25.86,0,0,1,583.08,496.06Z" transform="translate(-501 -441)"/><path class="cls-32" d="M591.08,496.07l14-14.94a9.66,9.66,0,0,1,7,0c-.55,3.3-3.58,4.64-5.48,6.85-2.26,2.63-5.28,4.63-6.52,8.08A33.41,33.41,0,0,1,591.08,496.07Z" transform="translate(-501 -441)"/><path class="cls-33" d="M553.07,550c6-3.91,10.5-9.57,16.08-14a18.88,18.88,0,0,1,0,7l-16.08,15A26.49,26.49,0,0,1,553.07,550Z" transform="translate(-501 -441)"/><path class="cls-34" d="M684.06,496l13-14.92h8l-14,14.91Z" transform="translate(-501 -441)"/><path class="cls-35" d="M621.07,558.81h17.07a10.39,10.39,0,0,1,5.42-1.2c6.44,1,11.7-.74,15.78-6.09,1.31-1.71,2.78-3.9,5.62-3.5.37,1.92-.41,4,.65,5.83-1.09,4.15-4,5.79-8.05,5.78l-44.24-.11C615.81,558.32,618.52,559.41,621.07,558.81Z" transform="translate(-501 -441)"/><path class="cls-36" d="M609.07,496.06l14-14.93a12.16,12.16,0,0,1,8,0c-5.66,4.32-10,10-15,14.93Z" transform="translate(-501 -441)"/><path class="cls-37" d="M553.24,602.94c1.92.17,3.18-.59,4.64-2,3.58-3.5,6.19-8.17,11.29-10,1.17,12.84,1.17,12.88-11.39,12.76C556.28,603.71,554.5,604.6,553.24,602.94Z" transform="translate(-501 -441)"/><path class="cls-7" d="M603.15,592.93V582c2.6-2.81,4.5-6.5,8.92-7v10C609.71,588.31,607.82,592.17,603.15,592.93Z" transform="translate(-501 -441)"/><path class="cls-38" d="M631.07,481.13h-47l-8,.09-2.23-.35c1-.84,2.17-.71,3.31-.7q40.51.06,81,.15a1.74,1.74,0,0,0-.08.68l-8.06.13h-19Z" transform="translate(-501 -441)"/><path class="cls-39" d="M1236,582.24l1,1.77c-1.17,1.81-1.71,4.19-4.32,4.67-6.33.43-6.71.07-6.64-6.25,0-1.46-.2-3,.53-4.33,2.09-1.76,4.42-1.14,6.73-.66C1235.49,578.27,1236,580.11,1236,582.24Z" transform="translate(-501 -441)"/><path class="cls-11" d="M612.06,575c-3.25,2-5.21,5.61-8.92,7q0-4.49,0-9c2.72-2.11,3.89-7,8.93-5Z" transform="translate(-501 -441)"/><path class="cls-38" d="M666.07,481.07q-7,7.49-14,15h-4c.15-2.69,2.45-3.85,4-5.47,2.9-3,5.92-5.82,8-9.51Z" transform="translate(-501 -441)"/><path class="cls-40" d="M612.06,568c-4.28-.67-5.16,4.75-8.93,5,0-2.34,0-4.67,0-7l9-7c0,.42.09.85.13,1.27C612.15,562.82,612.11,565.4,612.06,568Z" transform="translate(-501 -441)"/><path class="cls-41" d="M1162,588.22c-2.45,1.29-2,3.45-1.07,5.73-2.73-.6-2.58-4.76-5.09-3.7-2.25,1-.61,3.79-1,5.74-.21,1,.53,2.38-1.8,3V577c1.14-.9,1.91-.33,2.59.64a4.86,4.86,0,0,1,.55,2.82c-.74,4.69,1.58,6.45,5.93,6.38A1,1,0,0,1,1162,588.22Z" transform="translate(-501 -441)"/><path class="cls-42" d="M883.28,575.3v24.56c-2.14-3.53-1.24-6.27-1.4-8.82s0-5.31,0-8c-2.59,0-1.3,3.19-4.05,4A27.4,27.4,0,0,1,883.28,575.3Z" transform="translate(-501 -441)"/><path class="cls-43" d="M603.15,592.93l8.91-8c.06.92.13,1.84.2,2.76.26.44.53.88.8,1.31-1.44,5.32-5.08,8.64-9.9,10.89C603.16,597.59,603.15,595.26,603.15,592.93Z" transform="translate(-501 -441)"/><path class="cls-44" d="M925.33,583.7c-1.55.69-2.29-.41-3.67-1.41v16.45h-1.12V576.36c3.4,1.3,3.15,5,4.68,7.42Z" transform="translate(-501 -441)"/><path class="cls-45" d="M1071.29,583.64c-1.72,1.19-2.08-.72-3.44-1.67v17.44c-2.35-1.84-1.59-3.76-1.62-5.36-.1-5.12,0-10.25,0-15.37,0-.83-.08-1.87.85-2.12,1.22-.33,1.56.71,1.92,1.67.69,1.85,1.49,3.66,2.24,5.48Z" transform="translate(-501 -441)"/><path class="cls-44" d="M1018.23,582.93c-2.26-1.44-1.32.77-1.36,1.33-.35,4.79.52,9.66-1.42,14.41V576.33c2.78,1,3,3.44,3.5,5.71C1019.46,583,1018.93,583,1018.23,582.93Z" transform="translate(-501 -441)"/><path class="cls-46" d="M901,580.4l-.07.07c1.7-1.44,2,.19,2.41,1.19.52,1.46.46,3.14,1.68,4.33l0-.1c-.43,2.15,1.91,4.46-.39,6.49-1,.08-2,0-2.9.07-3.72.49-4.61-1.06-3.2-4.33C899.18,585.49,899.63,582.79,901,580.4Z" transform="translate(-501 -441)"/><path class="cls-47" d="M950,580.4l-.07.07c1.37-1.36,2-.13,2.31.85.53,1.51.68,3.14,1.12,4.69.16,2.08,2.32,4,.52,6.23a17.73,17.73,0,0,1-5.86,0c-1.29-1.19-.45-2.63-.47-4C948.32,585.6,948.67,582.84,950,580.4Z" transform="translate(-501 -441)"/><path class="cls-48" d="M1095.07,598.71c-1.75-5-.51-10.06-.75-15.08-.14-3.11.58-6.42-4.5-6.54,4-1.74,7.53-1,12.16-.85-2.38,2.29-4.31,1.37-5.91,1.82-1.35,4.91-.25,9.91-.62,14.86C1095.31,594.85,1095.84,596.82,1095.07,598.71Z" transform="translate(-501 -441)"/><path class="cls-49" d="M993.06,598.8c-2.3-2.35-.66-5.25-1-7.87a44,44,0,0,1,0-6c0-10.24.11-10.32,11.2-8.39-2.93,2.5-6.21.72-9,1.58-1.71,4.38-.15,8.94-.72,13.39C993.19,594,994,596.43,993.06,598.8Z" transform="translate(-501 -441)"/><path class="cls-50" d="M993.06,598.8q0-10.32,0-20.66c0-.1.23-.28.33-.26a5.92,5.92,0,0,1,.81.27c-.16,8.45-.16,8.45,7.76,9.1-.51,1.17-1.57.78-2.26.66-4.55-.75-5.59,1.08-5.74,5.59-.26,7.78,5.73,2.91,8.87,5.3Z" transform="translate(-501 -441)"/><path class="cls-50" d="M1046,586.92h6.9c-3.81,1.05-8.3-.3-7.89,6.87.43,7.55,6.24,2.26,8.45,4.74-9.5,1.24-9.52,1.24-9.49-8,0-4.49.09-9,.13-13.47,2.52.39,1.05,2.33,1.3,3.54C1045.84,582.67,1044.92,584.89,1046,586.92Z" transform="translate(-501 -441)"/><path class="cls-51" d="M1233.73,578.22l-6.58-.08c-1.76,5.21,0,10.58-.71,15.84-.23,1.61.36,3.29-.44,4.84-2.32-2.71-.66-5.91-1-8.86a57.82,57.82,0,0,1-.06-7c0-8,1.28-8.81,9-6C1234.38,577.52,1234.3,577.91,1233.73,578.22Z" transform="translate(-501 -441)"/><path class="cls-52" d="M1226,598.82c0-6.92,0-13.83,0-20.75,0-.09.25-.27.35-.24a4,4,0,0,1,.79.31c0,1.15-.07,2.3-.08,3.45,0,6.73,0,6.73,6.9,6.47,0,.21,0,.42,0,.64C1226.87,588.6,1227.36,594.43,1226,598.82Z" transform="translate(-501 -441)"/><path class="cls-53" d="M1030.81,597.92c-1.57-.2-1.65-.2-1.66-1.29,0-4.69,0-9.39,0-15.58l-3.3,6.83c-.83.18-1.38.1-.87-1,.25-2.69,1.69-4.89,2.9-7.19,2.41-1.62,2.57-.17,2.62,1.8C1030.63,587,1030.05,592.47,1030.81,597.92Z" transform="translate(-501 -441)"/><path class="cls-54" d="M1075.2,591.74l1,2.27.7,0V576.49h.89a6.9,6.9,0,0,1,.51,1.82c0,6.77,0,13.54-.6,20.46-1.65-2.1-4.89-3.54-2.38-7.15Z" transform="translate(-501 -441)"/><path class="cls-2" d="M1130.08,581.12v14.56h-1.31c-.81-5.53-1.2-11.07.3-16.67C1131,579,1130.41,580.1,1130.08,581.12Z" transform="translate(-501 -441)"/><path class="cls-44" d="M1030.81,597.92c-1.81-5.07-.49-10.3-.73-15.45-.08-1.76-.54-2.57-2.21-2.73,0-1.64.88-2.69,2.94-3.94Z" transform="translate(-501 -441)"/><path class="cls-55" d="M1046,586.92c-3-2.84.26-6.87-1.9-9.86,3.07-2.29,6.33-.75,9.48-.8.16,1.1-.26,1.48-1,1.57C1045.05,578.73,1045.05,578.73,1046,586.92Z" transform="translate(-501 -441)"/><path class="cls-42" d="M870.33,576.53c-1.57,7.32-.64,14.68-2,22V576.63Z" transform="translate(-501 -441)"/><path class="cls-4" d="M931,576.86c.91-.76,1.1.07,1.11.63q.09,9.68.07,19.36c0,.9.24,2.22-1.36,1.83-.4-.1-.59-1-.88-1.54C931.18,590.43,929.91,583.59,931,576.86Z" transform="translate(-501 -441)"/><path class="cls-56" d="M931,576.86c-.36,6.76,1.32,13.63-1.06,20.28A5.29,5.29,0,0,1,928,593c-.52-1,0-1.05.78-.94,2.33,1.27,1.29-.9,1.36-1.49C930.7,586,929.24,581.34,931,576.86Z" transform="translate(-501 -441)"/><path class="cls-3" d="M1201.49,576.75c.94,7.26-.42,14.54,1.88,22.66C1200.38,594.92,1199.68,584.56,1201.49,576.75Z" transform="translate(-501 -441)"/><path class="cls-57" d="M968.18,582a2.53,2.53,0,0,1,1.55-3v19.31c-.86-1.83-1.73-2.83-1.52-4.35A45.23,45.23,0,0,0,968.18,582Z" transform="translate(-501 -441)"/><path class="cls-58" d="M905.06,586c-3.42-.32-.63-5.23-4.09-5.52a2.17,2.17,0,0,1,.52-3.94c2.19-.84,1.92,1.72,2.28,2.8A47.5,47.5,0,0,1,905.06,586Z" transform="translate(-501 -441)"/><path class="cls-59" d="M905,591.91c.53-2-1.47-4,0-6A40.68,40.68,0,0,1,908,598.33l-1.18.28L905,593A1.94,1.94,0,0,0,905,591.91Z" transform="translate(-501 -441)"/><path class="cls-2" d="M1095.07,598.71q0-10.19,0-20.37c0-.13.12-.38.19-.39a4.08,4.08,0,0,1,.77.11c0,5.76,0,11.52-.15,17.27C1095.89,596.44,1096.88,598,1095.07,598.71Z" transform="translate(-501 -441)"/><path class="cls-60" d="M1211.74,594.91c-.26.56-.37,1.35-.8,1.63-.89.58-1-.22-.94-.86.83-6.24-.92-12.61.92-18.8C1212.23,582.84,1210.76,588.93,1211.74,594.91Z" transform="translate(-501 -441)"/><path class="cls-58" d="M952.93,586.06c-1.65-1.51.35-5-3-5.59-2-1.92-.42-3.05,1-4.6,2.16,2.49,1.77,5.61,2.89,8.15C953.3,584.6,953.74,585.61,952.93,586.06Z" transform="translate(-501 -441)"/><path class="cls-61" d="M1185.94,578c2.51.22,2,2.25,2,3.71,0,4.39-.1,8.78-.17,13.16-1.08.15-1.45-.62-1.8-1.41a103.18,103.18,0,0,1-.59-14.81Z" transform="translate(-501 -441)"/><path class="cls-62" d="M978.8,589.15c-1.49-.46-3.25.2-5.13-1.32,2.54-1.2,5.38-1.77,6.52-.18,1.69,2.34,1.33,5.56-.17,8.32C978.52,593.89,980.66,591.16,978.8,589.15Z" transform="translate(-501 -441)"/><path class="cls-2" d="M1211.74,594.91c-1.71-5.94-.23-12-.82-18,1.56-.85,1.13.7,1.12,1.12C1212,583.64,1211.85,589.27,1211.74,594.91Z" transform="translate(-501 -441)"/><path class="cls-63" d="M876.34,588.64c1.49-.42,1.82.46,1.51,1.24-.5,1.22-.39,3.19-2.49,3-1.73-.11-2-1.84-2.08-2.92C872.91,586.58,876.6,591.73,876.34,588.64Z" transform="translate(-501 -441)"/><path class="cls-64" d="M905,591.91c.77.32.61.67,0,1l-6.89,0c-.94.27-1.4,0-1.09-1,.21-1.37-.35-3,1.25-3.91l.45-.08C897.83,594,902.2,591.68,905,591.91Z" transform="translate(-501 -441)"/><path class="cls-3" d="M948,591.94l6,0a1.16,1.16,0,0,1,1.83,0,.73.73,0,0,1,.24.8c.32,1,.87,2.16-1,2.16-2.74-3.17-5.47-3.16-8.21,0-1.9,0-1.33-1.13-1-2.15l.35-1.72C947.26,590.5,947.52,591.46,948,591.94Z" transform="translate(-501 -441)"/><path class="cls-65" d="M1075.3,591.61c-3.16-.51-5-4.1-4-8l-.09.08c1.34,2.67,2.66,5.35,4,8A1.27,1.27,0,0,0,1075.3,591.61Z" transform="translate(-501 -441)"/><path class="cls-66" d="M898.73,588l-.2.18-.25-.1c-.14-2.93-.33-5.89,2.76-7.67C900.59,583,900.76,585.84,898.73,588Z" transform="translate(-501 -441)"/><path class="cls-67" d="M1025,586.93l.87,1c-.85,1.83.25,6.13-4.19,3.42-1.31-.79-.23-1.66.38-2.38l-.08.08C1024.54,590.61,1023.71,587.25,1025,586.93Z" transform="translate(-501 -441)"/><path class="cls-68" d="M1140.82,593.89c.25,1.77-.68,2.91-2.66,5,.64-4.08,1.13-7,.74-9.85-.23-1,.17-1.42,1.19-1.16C1141,589.81,1139.89,592,1140.82,593.89Z" transform="translate(-501 -441)"/><path class="cls-60" d="M1018.23,582.93l.72-.89c1.79,2,2.18,4.56,3,7l.08-.08C1018.77,588.18,1019,585.24,1018.23,582.93Z" transform="translate(-501 -441)"/><path class="cls-69" d="M1176.09,593.91l0-12.89c1.11-.12,1.46.68,1.8,1.49.54,3.69.93,7.37-.38,11A1,1,0,0,1,1176.09,593.91Z" transform="translate(-501 -441)"/><path class="cls-66" d="M950,580.4c-.4,2.59-.65,5.22-1.89,7.6-.33.43-.66.45-1,0C948,585.4,946.68,582,950,580.4Z" transform="translate(-501 -441)"/><path class="cls-70" d="M897,592l1.09,1c-.46,2-.93,4-1.39,6l-1.51-.32A10.53,10.53,0,0,1,897,592Z" transform="translate(-501 -441)"/><path class="cls-4" d="M968.18,582a19.16,19.16,0,0,1,0,11.91Z" transform="translate(-501 -441)"/><path class="cls-61" d="M955.88,592l-1.83,0c.67-2.17-1.18-3.86-1.12-5.91.31-.68.61-1.36.91-2Z" transform="translate(-501 -441)"/><path class="cls-71" d="M1155,578a1.63,1.63,0,0,0-2-1c2.64-1.94,5.3-1.32,8-.09a3.88,3.88,0,0,1-2.4,1.82A3.73,3.73,0,0,1,1155,578Z" transform="translate(-501 -441)"/><path class="cls-72" d="M1176.09,593.91h1.15c2.26.41,2.51,2.37,3.15,4a1.72,1.72,0,0,1-.47,1.24C1177,598.66,1175.79,596.82,1176.09,593.91Z" transform="translate(-501 -441)"/><path class="cls-73" d="M1140,588l-1.11,1c-1.27-.5-3,.59-4.27-1.59,2.32-.31,4.29-1.62,6.18.57C1140.53,588.45,1140.27,588.42,1140,588Z" transform="translate(-501 -441)"/><path class="cls-57" d="M1162,588.22c0-.45-.07-.89-.11-1.33-1.32-1.93-.15-3.78.16-5.66.32-.71.73-1.3,1.64-1.21C1164.37,583,1164.88,586,1162,588.22Z" transform="translate(-501 -441)"/><path class="cls-74" d="M945.89,592.75l1,2.15a4.69,4.69,0,0,1-2,4C944.79,596.73,944.71,594.64,945.89,592.75Z" transform="translate(-501 -441)"/><path class="cls-74" d="M955.11,594.91l1-2.16c.58,1.94,1.15,3.87,1.9,6.37C955.26,598.29,955.3,596.53,955.11,594.91Z" transform="translate(-501 -441)"/><path class="cls-75" d="M1177.11,582.19l-1-1.17c.38-1.55-1.75-5.56,2.9-3l.24.61C1179.08,580.15,1179.16,581.82,1177.11,582.19Z" transform="translate(-501 -441)"/><path class="cls-76" d="M976.83,578.21c2.77-.45,2.95-.19,2.43,3.69-2-.57-.88-3-2.34-3.79Z" transform="translate(-501 -441)"/><path class="cls-77" d="M1137.58,578.07a7.58,7.58,0,0,0-4.51-1c-1,.58-1.11,0-1-.82,2.51-.24,5.18-1.13,6.88,1.76A.83.83,0,0,1,1137.58,578.07Z" transform="translate(-501 -441)"/><path class="cls-78" d="M1179,578c1.54-3,4.1-3,6.92,0l.09-.08c-2.37,1.21-4.74.59-7.11,0Z" transform="translate(-501 -441)"/><path class="cls-79" d="M1233.73,578.22c.08-.4.15-.79.23-1.19,2.08,1.19,4.19,2.38,2,5.21Z" transform="translate(-501 -441)"/><path class="cls-80" d="M1163.73,580l-.86,1.11c-2.09-.21-3-1.77-3.83-3.39l2-.82C1162.85,577.14,1163.29,578.58,1163.73,580Z" transform="translate(-501 -441)"/><path class="cls-81" d="M976.05,599.14c-1.69,1.22-3.24.87-5.59-1.11H976C976.59,598.38,976.6,598.75,976.05,599.14Z" transform="translate(-501 -441)"/><path class="cls-82" d="M1179.92,599.19c0-.39,0-.78,0-1.17,1.43-1.48,3-1.35,4.74-.55a1,1,0,0,1,.29,1.46C1183.32,599.89,1181.68,600.56,1179.92,599.19Z" transform="translate(-501 -441)"/><path class="cls-83" d="M1203.58,598.48c2-.55,3.35-1.13,4.63.56C1206.74,600.27,1205.47,600.09,1203.58,598.48Z" transform="translate(-501 -441)"/><path class="cls-2" d="M978.8,589.15c2.39,1.92.57,4.59,1.22,6.82l-.07-.05c-.94.15-1.54,0-1.08-1.17C978.85,592.88,978.82,591,978.8,589.15Z" transform="translate(-501 -441)"/><path class="cls-84" d="M976.92,578.11c-1.76-1.45-3.84-1.25-6-.71,4.08-2.17,4.73-2,5.89.81Z" transform="translate(-501 -441)"/><path class="cls-85" d="M1234,588.7a3.43,3.43,0,0,0,0-.64c1.19-1.2.4-3.83,3-4C1236.93,586.21,1236.54,588.15,1234,588.7Z" transform="translate(-501 -441)"/><path class="cls-65" d="M925.22,583.78l1.88,4c.51,1.11-.1,1.24-1,1.12-.83-1.65-2.6-3.16-.78-5.22Z" transform="translate(-501 -441)"/><path class="cls-86" d="M1132.05,576.21l1,.82c-1.65.89-2.21,2.57-3,4.09l-1-2.1A3.35,3.35,0,0,1,1132.05,576.21Z" transform="translate(-501 -441)"/><path class="cls-59" d="M1185,598.93c-.06-.41-.11-.83-.17-1.24-.13-1.73-.28-3.49,2.16-3.74l.86.94A3.46,3.46,0,0,1,1185,598.93Z" transform="translate(-501 -441)"/><path class="cls-87" d="M978.87,594.75l1.08,1.17c-.5,2-1.68,3.25-3.9,3.22l0-1.11C977.54,597.44,977.94,595.86,978.87,594.75Z" transform="translate(-501 -441)"/><path class="cls-88" d="M1131.88,598.38c1.79-.53,3.19-1,4.48.87C1134.64,600.17,1133.34,600,1131.88,598.38Z" transform="translate(-501 -441)"/><path class="cls-89" d="M926.11,588.92l1-1.12c1.24,1.13,1.3,2.74,1.69,4.21L928,593C927.38,591.6,926.74,590.26,926.11,588.92Z" transform="translate(-501 -441)"/><path class="cls-90" d="M1164.7,599c-2.93-.53-3.13-2-3.79-3.6C1163.92,595.13,1163.39,597.2,1164.7,599Z" transform="translate(-501 -441)"/><path class="cls-2" d="M1140,588a3.57,3.57,0,0,1,.8,0c0,2,0,3.91,0,5.87C1139.29,592.1,1140.27,590,1140,588Z" transform="translate(-501 -441)"/><path class="cls-85" d="M1137.58,578.07l1.35-.1c1.47,1.06.91,2.46,1,4.08C1138.26,580.89,1138.16,579.35,1137.58,578.07Z" transform="translate(-501 -441)"/><path class="cls-91" d="M947.18,588l1,0-.12,3.94-1.78-.91C946.55,590,946.87,589,947.18,588Z" transform="translate(-501 -441)"/><path class="cls-1" d="M769.13,522.65c.08-3.48.3-6.95.18-10.42-.08-2.51.61-3.54,3.32-3.49q13.44.22,26.88.06c3.69,0,5.09,1.63,5,5.13-.17,4.08,1.38,9.1-5.46,9.2-9.57.8-19.16.2-28.75.34C769.6,523.48,769.47,523,769.13,522.65Z" transform="translate(-501 -441)"/><path class="cls-92" d="M769.13,522.65l29.87.48c-7.44,2-15,.49-22.52.79C774.07,524,771.18,525.27,769.13,522.65Z" transform="translate(-501 -441)"/><path class="cls-93" d="M1092.35,510.37c4.12,7.34,8.26,14,11.59,21.88h-21c-3.16,0-2.06-1.51-1.16-3.09C1085.22,523.14,1088.59,517.09,1092.35,510.37Z" transform="translate(-501 -441)"/><path class="cls-94" d="M665,548c-1.81,1.66-3.94,3.07-5.35,5-3.94,5.44-9.19,6.86-15.47,5.78a2.33,2.33,0,0,1,.87-2.64c5.68-5.27,10.68-11.24,16.54-16.32,1-.82,1.91-2,3.4-.85Q665,543.52,665,548Z" transform="translate(-501 -441)"/><path class="cls-95" d="M665,539a65.82,65.82,0,0,0-11.45,10.49c-3,3.26-6.23,6.22-9.36,9.32h-6L665,533.27Z" transform="translate(-501 -441)"/><path class="cls-96" d="M714,579c-8.34,7.55-16.27,15.53-23.88,23.82h-10L714,569C714,572.32,714,575.65,714,579Z" transform="translate(-501 -441)"/><path class="cls-97" d="M603.16,599.92c3.4-3.54,7.09-6.82,9.9-10.89l13,.07c-2.45,6.31-7.78,9.91-12.9,13.71-2.43,0-4.87,0-7.3.12C603.64,603,602.94,601.9,603.16,599.92Z" transform="translate(-501 -441)"/><path class="cls-98" d="M684,589.09c-5.36,3.84-9,9.43-13.88,13.73h-10c2.38-6.38,7.78-9.94,12.91-13.75Z" transform="translate(-501 -441)"/><path class="cls-99" d="M613.13,602.81,626,589.1h9c-2.43,6.33-7.77,9.92-12.9,13.71Z" transform="translate(-501 -441)"/><path class="cls-29" d="M673,589.08l-12.91,13.75h-8.08C658.39,596.07,661.82,586.71,673,589.08Z" transform="translate(-501 -441)"/><path class="cls-100" d="M637.09,602.83h-8c2.43-6.33,7.77-9.93,12.89-13.72l8,0C647.46,595.32,642.89,599.66,637.09,602.83Z" transform="translate(-501 -441)"/><path class="cls-101" d="M642,589.1,629.1,602.82h-7L635,589.1Z" transform="translate(-501 -441)"/><path class="cls-102" d="M637.09,602.83,650,589.08h6.11c-4.51,4.78-8.31,9-12.37,13C641.91,603.88,639.33,602.69,637.09,602.83Z" transform="translate(-501 -441)"/><path class="cls-97" d="M699.18,516V503c3-4.59,7.29-8,11.06-11.91.94-1,2.08-2.34,3.8-1.07v12C709.82,507.49,705.86,513.19,699.18,516Z" transform="translate(-501 -441)"/><path class="cls-103" d="M699.18,516,714,502.05c0,3,0,6,0,9-4.19,5.44-8.13,11.15-14.83,13.92Z" transform="translate(-501 -441)"/><path class="cls-104" d="M699.17,539.94v-8c2.75-5,7.2-8.35,11.26-12.09A3.09,3.09,0,0,1,714,519q0,3.5,0,7C710.22,531.88,706,537.3,699.17,539.94Z" transform="translate(-501 -441)"/><path class="cls-105" d="M714,519c-6.15,2.92-9.41,9.17-14.83,12.93v-7L714,511Z" transform="translate(-501 -441)"/><path class="cls-43" d="M714,490.06c-4.53,1.95-6.73,6.47-10.4,9.37-1.5,1.19-2.35,3.18-4.46,3.61,0-2-.07-4-.1-6l15-14Q714,486.56,714,490.06Z" transform="translate(-501 -441)"/><path class="cls-106" d="M699.17,539.94c5.54-4,9.78-9.42,14.85-13.93.67,10.49-8.75,13.39-14,20.16C698.61,543.48,699.22,541.68,699.17,539.94Z" transform="translate(-501 -441)"/><path class="cls-107" d="M1159,577.74c2.31,0,2.53,2.28,3.83,3.39.45,2-.34,3.89-.94,5.76-6.15,2.7-7.13,2.1-7.11-4.4,0-1.5.12-3,.18-4.48Z" transform="translate(-501 -441)"/><path class="cls-108" d="M1187,594l-2.16,3.74-4.86.33c-1.58-.92-1.56-2.89-2.69-4.11q-.06-5.86-.13-11.72.92-2.13,1.81-4.26c2.37-1.67,4.74-.36,7.11,0C1187.35,583.22,1186.9,588.6,1187,594Z" transform="translate(-501 -441)"/></svg>